<svg width="30" height="30" viewBox="0 0 30 30" fill="none" xmlns="http://www.w3.org/2000/svg">
<g clip-path="url(#clip0_11_2859)">
<path d="M15 0C6.71484 0 0 6.71484 0 15C0 23.2852 6.71484 30 15 30C23.2852 30 30 23.2852 30 15C30 6.71484 23.2852 0 15 0ZM24.3633 24.3574C23.1445 25.5762 21.7324 26.5312 20.1562 27.1934C18.5273 27.8848 16.793 28.2305 15 28.2305C13.2129 28.2305 11.4785 27.8789 9.84375 27.1934C8.26758 26.5254 6.84961 25.5703 5.63672 24.3574C4.41797 23.1387 3.46289 21.7266 2.80078 20.1504C2.10938 18.5215 1.75781 16.7871 1.75781 15C1.75781 13.2129 2.10937 11.4785 2.79492 9.84375C3.46289 8.26758 4.41797 6.84961 5.63086 5.63672C6.85547 4.41797 8.26758 3.46289 9.84375 2.79492C11.4785 2.10937 13.2129 1.75781 15 1.75781C16.7871 1.75781 18.5215 2.10937 20.1562 2.79492C21.7324 3.46289 23.1504 4.41797 24.3633 5.63086C25.582 6.84961 26.5371 8.26172 27.1992 9.83789C27.8906 11.4668 28.2363 13.2012 28.2363 14.9941C28.2363 16.7812 27.8848 18.5156 27.1992 20.1504C26.5312 21.7266 25.5762 23.1445 24.3633 24.3574Z" fill="black"/>
<path d="M10.8047 11.918H7.88086V21.2754H10.8047V11.918Z" fill="black"/>
<path d="M9.28125 7.5C8.20312 7.5 7.49414 8.19727 7.49414 9.12305C7.49414 10.0313 8.17969 10.7461 9.24023 10.7461H9.26367C10.3652 10.7461 11.0508 10.0254 11.0449 9.12305C11.0215 8.19727 10.3594 7.5 9.28125 7.5Z" fill="black"/>
<path d="M18.791 11.8301C17.1152 11.8301 16.0664 12.7441 15.873 13.3887V11.918H12.5859C12.627 12.6973 12.5859 21.2754 12.5859 21.2754H15.873V16.2187C15.873 15.9316 15.8613 15.6504 15.9434 15.4512C16.166 14.8887 16.6523 14.3027 17.5254 14.3027C18.668 14.3027 19.1836 15.1699 19.1836 16.4355V21.2754H22.5V16.0723C22.5 13.1777 20.8711 11.8301 18.791 11.8301Z" fill="black"/>
</g>
<defs>
<clipPath id="clip0_11_2859">
<rect width="30" height="30" fill="white"/>
</clipPath>
</defs>
</svg>
