<svg width="30" height="30" viewBox="0 0 30 30" fill="none" xmlns="http://www.w3.org/2000/svg">
<path fill-rule="evenodd" clip-rule="evenodd" d="M28.125 22.5C28.125 22.6903 28.0884 22.8703 28.0359 23.0419L19.6875 14.0625L28.125 7.5V22.5ZM3.33375 24.3244L11.7937 15.3094L15 17.7328L18.0675 15.2944L26.6663 24.3244C26.5322 24.3553 3.46781 24.3553 3.33375 24.3244ZM1.875 22.5V7.5L10.3125 14.0625L1.96406 23.0419C1.91156 22.8703 1.875 22.6903 1.875 22.5ZM27.1875 5.625L15 15L2.8125 5.625H27.1875ZM26.25 3.75H3.75C1.67906 3.75 0 5.42906 0 7.5V22.5C0 24.5709 1.67906 26.25 3.75 26.25H26.25C28.3209 26.25 30 24.5709 30 22.5V7.5C30 5.42906 28.3209 3.75 26.25 3.75Z" fill="black"/>
</svg>
